<svg width="143" height="49" viewBox="0 0 143 49" fill="none" xmlns="http://www.w3.org/2000/svg">
<g id="Frame" clip-path="url(#clip0_346_8609)">
<g id="Group">
<g id="Group_2">
<path id="Vector" d="M7.64185 48.8651V42.6249L22.7975 33.4521L29.0341 39.7946L42.0102 28.4395V48.8651H7.64185Z" fill="#3500D4"/>
<path id="Vector_2" d="M7.64185 33.1445L16.9967 25.1311V15.2764H7.64185V33.1445Z" fill="#6038DD"/>
<path id="Vector_3" d="M20.1152 23.4606L26.1842 18.2434L29.5037 22.2671V8.76367H20.1152V23.4606Z" fill="#6038DD"/>
<path id="Vector_4" d="M32.4541 22.267L42.0102 14.5605V0H32.4541V22.267Z" fill="#6038DD"/>
<path id="Vector_5" d="M0.5 43.4084L25.7817 21.7552L30.2747 27.1429L46.671 13.4349L45.028 11.1502L55.6906 9.41113L52.0358 19.3682L49.9904 17.2881L29.1682 35.736L23.3675 29.564L0.5 43.4084Z" fill="#F61C7A"/>
</g>
<g id="Group_3">
<path id="Vector_6" d="M66.1183 20.7669C64.7771 20.7669 63.4694 20.5964 62.2288 20.2213C60.9882 19.8463 59.9823 19.3689 59.2446 18.7892L60.5858 15.7884C61.3235 16.2999 62.1617 16.7432 63.1677 17.0842C64.14 17.4252 65.1459 17.5957 66.1854 17.5957C66.9566 17.5957 67.5936 17.5275 68.063 17.357C68.5325 17.1865 68.9013 16.9819 69.1025 16.7091C69.3372 16.4363 69.4378 16.1294 69.4378 15.7543C69.4378 15.311 69.2701 14.9359 68.9013 14.6631C68.5325 14.3903 68.0966 14.1857 67.493 14.0152C66.923 13.8447 66.286 13.6742 65.5818 13.5378C64.8777 13.3673 64.1736 13.1968 63.4694 12.9581C62.7653 12.7194 62.1282 12.4466 61.5582 12.0715C60.9882 11.6965 60.5188 11.2532 60.1499 10.6394C59.7811 10.0597 59.6135 9.30948 59.6135 8.38879C59.6135 7.3999 59.8817 6.51331 60.3847 5.69492C60.9211 4.87653 61.6923 4.22864 62.7653 3.75125C63.8047 3.27385 65.1459 3.03516 66.7218 3.03516C67.7948 3.03516 68.8342 3.17155 69.8737 3.41025C70.9131 3.64895 71.8184 4.05814 72.5896 4.53554L71.3825 7.5363C70.5778 7.09301 69.8066 6.75201 69.0019 6.51331C68.1972 6.30872 67.426 6.17232 66.6883 6.17232C65.9506 6.17232 65.3136 6.27462 64.8442 6.44511C64.3747 6.61561 64.0059 6.85431 63.8047 7.16121C63.6035 7.434 63.503 7.775 63.503 8.15009C63.503 8.59339 63.6706 8.93438 64.0394 9.20718C64.4083 9.47998 64.8442 9.68458 65.4477 9.85507C66.0177 10.0256 66.6548 10.1961 67.3589 10.3325C68.063 10.503 68.7672 10.6735 69.4713 10.9122C70.1754 11.1168 70.8125 11.4237 71.3825 11.7647C71.9525 12.1056 72.422 12.583 72.7908 13.1968C73.1596 13.7765 73.3273 14.5267 73.3273 15.4133C73.3273 16.3681 73.059 17.2547 72.5226 18.0731C71.9861 18.8915 71.2149 19.5053 70.1419 20.0168C69.0354 20.5282 67.7277 20.7669 66.1183 20.7669Z" fill="#F61C7A"/>
<path id="Vector_7" d="M84.057 19.8464C83.6546 20.1192 83.2187 20.3238 82.6823 20.4602C82.1458 20.5966 81.5758 20.6648 81.0058 20.6648C79.4634 20.6648 78.2898 20.2556 77.418 19.4714C76.5798 18.6871 76.1439 17.4936 76.1439 15.925V10.5032H74.1321V7.5706H76.1439V4.36523H79.8993V7.5706H83.1181V10.5032H79.8993V15.8909C79.8993 16.4365 80.0334 16.8798 80.3351 17.1867C80.6369 17.4936 81.0058 17.63 81.5087 17.63C82.1122 17.63 82.6152 17.4595 83.0176 17.1526L84.057 19.8464Z" fill="#F61C7A"/>
<path id="Vector_8" d="M91.9364 20.6652C90.5617 20.6652 89.3211 20.3583 88.2481 19.7786C87.1752 19.1989 86.3369 18.3806 85.6998 17.3576C85.0963 16.3346 84.761 15.1752 84.761 13.8453C84.761 12.5154 85.0628 11.356 85.6998 10.333C86.3034 9.31006 87.1752 8.52577 88.2481 7.91198C89.3211 7.33229 90.5282 7.02539 91.9364 7.02539C93.3112 7.02539 94.5182 7.33229 95.5912 7.91198C96.6642 8.49167 97.5024 9.27596 98.1395 10.299C98.743 11.3219 99.0448 12.4813 99.0448 13.8453C99.0448 15.1411 98.743 16.3346 98.1395 17.3576C97.536 18.3806 96.6977 19.1989 95.5912 19.7786C94.5182 20.3924 93.3112 20.6652 91.9364 20.6652ZM91.9364 17.5281C92.5735 17.5281 93.11 17.3917 93.6129 17.0848C94.1159 16.7779 94.5183 16.3687 94.7865 15.8231C95.0883 15.2775 95.2224 14.6296 95.2224 13.8794C95.2224 13.0951 95.0883 12.4472 94.7865 11.9016C94.4847 11.356 94.1159 10.9468 93.6129 10.6399C93.11 10.3331 92.54 10.1967 91.9364 10.1967C91.2994 10.1967 90.7293 10.3331 90.2599 10.6399C89.757 10.9468 89.3546 11.356 89.0528 11.9016C88.7511 12.4472 88.6169 13.0951 88.6169 13.8794C88.6169 14.6296 88.7511 15.2775 89.0528 15.8231C89.3546 16.3687 89.757 16.7779 90.2599 17.0848C90.7629 17.3917 91.2994 17.5281 91.9364 17.5281Z" fill="#F61C7A"/>
<path id="Vector_9" d="M107.83 20.6652C106.421 20.6652 105.181 20.3583 104.074 19.7786C102.968 19.1989 102.13 18.3806 101.493 17.3576C100.889 16.3346 100.554 15.1411 100.554 13.8453C100.554 12.5154 100.855 11.356 101.493 10.333C102.096 9.31006 102.968 8.52577 104.074 7.91198C105.181 7.33229 106.421 7.02539 107.83 7.02539C109.204 7.02539 110.378 7.33229 111.384 7.91198C112.39 8.49167 113.161 9.31006 113.63 10.4012L110.713 12.0039C110.378 11.3901 109.942 10.9127 109.439 10.6399C108.936 10.3331 108.366 10.1967 107.796 10.1967C107.159 10.1967 106.589 10.3331 106.053 10.6399C105.55 10.9468 105.147 11.356 104.846 11.9016C104.544 12.4472 104.41 13.0951 104.41 13.8794C104.41 14.6637 104.544 15.3116 104.846 15.8572C105.147 16.4028 105.55 16.812 106.053 17.1189C106.556 17.4258 107.159 17.5622 107.796 17.5622C108.4 17.5622 108.936 17.4258 109.439 17.1189C109.942 16.8461 110.378 16.3687 110.713 15.7208L113.63 17.3235C113.161 18.3806 112.39 19.1989 111.384 19.7786C110.378 20.3924 109.204 20.6652 107.83 20.6652Z" fill="#F61C7A"/>
<path id="Vector_10" d="M129.96 20.4943H125.399L121.309 15.3112L119.498 17.1185V20.4943H115.709V2.28516H119.498V12.5832L124.997 7.29779H129.49L124.058 12.856L129.96 20.4943Z" fill="#F61C7A"/>
</g>
<g id="Group_4">
<path id="Vector_11" d="M53.0751 43.8865V29.9738H47.6768V26.7344H62.3965V29.9738H56.9981V43.9206H53.0751V43.8865Z" fill="#3500D4"/>
<path id="Vector_12" d="M71.9862 30.4854V34.0317C71.8185 34.0317 71.6844 33.9976 71.5503 33.9976C71.4162 33.9976 71.2821 33.9976 71.1479 33.9976C70.1085 33.9976 69.3038 34.3045 68.6332 34.8842C67.9961 35.498 67.6943 36.4187 67.6943 37.6804V43.9206H63.939V30.6899H67.5267V32.429C67.862 31.9175 68.3314 31.5424 68.8679 31.2355C69.7397 30.724 70.7791 30.4854 71.9862 30.4854Z" fill="#3500D4"/>
<path id="Vector_13" d="M97.8379 25.6768V32.0534C97.5361 31.7124 97.2008 31.4396 96.8319 31.2009C95.9937 30.7235 95.0549 30.4848 93.9484 30.4848C92.7413 30.4848 91.6348 30.7576 90.6289 31.3032C89.6565 31.8488 88.8853 32.6331 88.3153 33.6561C87.7453 34.679 87.4771 35.8725 87.4771 37.2706C87.4771 38.6346 87.7453 39.8281 88.3153 40.8511C88.8853 41.8741 89.6565 42.6584 90.6289 43.2039C91.6013 43.7836 92.7078 44.0564 93.9484 44.0564C95.0884 44.0564 96.0608 43.8177 96.8655 43.3403C97.3014 43.0675 97.6702 42.7607 98.0055 42.3515V43.8859H101.593V25.6768H97.8379ZM97.469 39.2484C97.1673 39.794 96.7649 40.2032 96.2619 40.5101C95.759 40.817 95.189 40.9534 94.5854 40.9534C93.9484 40.9534 93.4119 40.817 92.9089 40.5101C92.406 40.2032 92.0036 39.794 91.7018 39.2484C91.4001 38.7028 91.266 38.0549 91.266 37.3047C91.266 36.5545 91.4336 35.8725 91.7018 35.3269C92.0036 34.7813 92.406 34.3722 92.9089 34.0653C93.4119 33.7584 93.9819 33.622 94.5854 33.622C95.189 33.622 95.759 33.7584 96.2619 34.0653C96.7649 34.3722 97.1673 34.7813 97.469 35.3269C97.7708 35.8725 97.9049 36.5204 97.9049 37.3047C97.9049 38.0549 97.7708 38.7028 97.469 39.2484Z" fill="#3500D4"/>
<path id="Vector_14" d="M83.2521 31.9175C82.1456 30.9627 80.6367 30.4854 78.6249 30.4854C77.5855 30.4854 76.5796 30.6217 75.5737 30.8945C74.5678 31.1673 73.7295 31.5765 73.0254 32.088L74.3666 34.7478C74.836 34.3727 75.406 34.0658 76.0766 33.8612C76.7473 33.6566 77.4179 33.5202 78.122 33.5202C79.1279 33.5202 79.8991 33.7589 80.3685 34.2022C80.8715 34.6455 81.1062 35.2934 81.1062 36.1118H78.122C76.8143 36.1118 75.7413 36.2823 74.9031 36.6233C74.0984 36.9643 73.4948 37.4076 73.0925 38.0214C72.7236 38.6011 72.5225 39.283 72.5225 40.1014C72.5225 40.8516 72.7236 41.5336 73.0925 42.1474C73.4613 42.7612 74.0313 43.2386 74.769 43.5796C75.5066 43.9206 76.3449 44.0911 77.3843 44.0911C78.5244 44.0911 79.4632 43.8865 80.1673 43.4432C80.6703 43.1363 81.0391 42.7612 81.3409 42.2497V43.8865H84.8615V36.3505C84.8951 34.3386 84.3251 32.8723 83.2521 31.9175ZM80.0332 41.0562C79.5303 41.3631 78.9602 41.4995 78.3567 41.4995C77.6861 41.4995 77.1831 41.3631 76.8143 41.0562C76.4455 40.7834 76.2443 40.3742 76.2443 39.8968C76.2443 39.4535 76.412 39.0784 76.7473 38.8057C77.0826 38.4988 77.6861 38.3624 78.5579 38.3624H81.1397V39.7263C80.905 40.306 80.5362 40.7493 80.0332 41.0562Z" fill="#3500D4"/>
<path id="Vector_15" d="M106.958 28.8483C106.254 28.8483 105.717 28.6437 105.282 28.2345C104.846 27.8253 104.645 27.3138 104.645 26.7C104.645 26.0862 104.846 25.5747 105.282 25.1656C105.717 24.7564 106.288 24.5518 106.958 24.5518C107.662 24.5518 108.199 24.7564 108.635 25.1314C109.071 25.5065 109.272 26.018 109.272 26.6318C109.272 27.2797 109.071 27.7912 108.635 28.2004C108.232 28.6437 107.662 28.8483 106.958 28.8483ZM105.08 43.8862V30.6897H108.836V43.8862H105.08Z" fill="#3500D4"/>
<path id="Vector_16" d="M125.601 36.3505V43.9206H121.845V36.9643C121.845 35.9072 121.611 35.1229 121.175 34.6114C120.705 34.0999 120.068 33.8612 119.23 33.8612C118.627 33.8612 118.09 33.9976 117.621 34.2363C117.151 34.5091 116.782 34.8842 116.514 35.3957C116.246 35.9072 116.112 36.5892 116.112 37.4076V43.9206H112.356V30.6899H115.944V32.2585C116.313 31.8493 116.749 31.4742 117.285 31.2014C118.157 30.724 119.13 30.4854 120.27 30.4854C121.309 30.4854 122.214 30.6899 123.019 31.0991C123.824 31.5083 124.461 32.1562 124.93 33.0087C125.366 33.8953 125.601 34.9865 125.601 36.3505Z" fill="#3500D4"/>
<path id="Vector_17" d="M138.912 30.6899V32.3608C138.51 31.8493 138.074 31.4401 137.504 31.1673C136.666 30.724 135.693 30.4854 134.62 30.4854C133.413 30.4854 132.34 30.7581 131.334 31.2696C130.362 31.7811 129.591 32.5313 128.987 33.4861C128.384 34.4409 128.115 35.5662 128.115 36.862C128.115 38.1237 128.417 39.2489 128.987 40.2037C129.591 41.1585 130.362 41.9087 131.334 42.4543C132.307 42.9999 133.413 43.2386 134.62 43.2386C135.727 43.2386 136.666 42.9999 137.504 42.5566C137.973 42.3179 138.376 41.9769 138.711 41.6018V42.1815C138.711 43.375 138.409 44.2616 137.806 44.8754C137.202 45.4892 136.23 45.7961 134.889 45.7961C134.05 45.7961 133.246 45.6597 132.374 45.3869C131.536 45.1141 130.831 44.739 130.295 44.2957L128.786 47.0577C129.524 47.6715 130.496 48.1148 131.603 48.4217C132.743 48.7286 133.916 48.865 135.123 48.865C137.47 48.865 139.281 48.2853 140.522 47.1259C141.762 45.9666 142.399 44.1593 142.399 41.7041V30.6899H138.912ZM138.342 38.567C138.04 39.0443 137.638 39.4194 137.135 39.6922C136.632 39.965 136.029 40.1014 135.392 40.1014C134.721 40.1014 134.151 39.965 133.648 39.6922C133.145 39.4194 132.709 39.0443 132.441 38.567C132.173 38.0896 132.005 37.5099 132.005 36.862C132.005 36.2141 132.139 35.6344 132.441 35.157C132.743 34.6796 133.145 34.3045 133.648 34.0317C134.151 33.7589 134.754 33.6225 135.392 33.6225C136.062 33.6225 136.632 33.7589 137.135 34.0317C137.638 34.3045 138.04 34.6796 138.342 35.157C138.644 35.6344 138.778 36.2141 138.778 36.862C138.778 37.5099 138.644 38.0896 138.342 38.567Z" fill="#3500D4"/>
</g>
</g>
</g>
<defs>
<clipPath id="clip0_346_8609">
<rect width="142" height="48.8647" fill="white" transform="translate(0.5)"/>
</clipPath>
</defs>
</svg>
