<svg width="18" height="18" viewBox="0 0 18 18" fill="none" xmlns="http://www.w3.org/2000/svg">
<g id="Frame" clip-path="url(#clip0_4_9039)">
<g id="Group">
<g id="Group_2">
<path id="Vector" d="M16.3728 9.91556C16.8269 13.5726 13.2607 17.5523 9.374 17.8347C4.61912 18.1842 0.745754 14.702 0.692328 10.0635C0.652259 5.62662 4.29856 1.86203 8.53255 2.05025C8.53255 4.64513 8.53255 7.24001 8.53255 9.91556C11.1905 9.91556 13.7816 9.91556 16.3728 9.91556Z" fill="#8198A5"/>
</g>
<g id="Group_3">
<path id="Vector_2" d="M12.4727 4.4838C12.4994 4.47035 12.5395 4.47035 12.5662 4.45691L12.4326 5.10227C12.3525 5.07538 12.2857 5.03504 12.2456 4.99471C12.1922 4.95437 12.1655 4.88715 12.1655 4.81992C12.1655 4.7527 12.1922 4.68547 12.2456 4.61825C12.2991 4.56447 12.3792 4.52413 12.4727 4.4838Z" fill="#8198A5"/>
<path id="Vector_3" d="M12.7398 5.88208C12.8066 5.90897 12.8734 5.93586 12.9135 5.9762C12.9669 6.01653 12.9936 6.08375 12.9936 6.15098C12.9936 6.23165 12.9669 6.29887 12.9135 6.35265C12.86 6.40643 12.7799 6.44677 12.6864 6.47366C12.6597 6.4871 12.633 6.4871 12.6063 6.4871L12.7398 5.88208Z" fill="#8198A5"/>
<path id="Vector_4" d="M17.3077 8.45007C17.1875 4.96782 14.7433 1.86203 11.4042 1.015C10.7631 0.840217 10.1086 0.799882 9.42743 0.692322V9.12232C11.885 9.12232 14.2625 9.10888 16.6533 9.13577C17.1875 9.13577 17.3211 8.96098 17.3077 8.45007ZM13.1004 5.31739C13.2073 5.35773 13.3141 5.41151 13.4076 5.46529C13.5011 5.53251 13.5679 5.59974 13.6347 5.69385C13.6881 5.78797 13.7148 5.89553 13.7148 6.02998C13.7148 6.2451 13.6614 6.43333 13.5412 6.59467C13.421 6.75601 13.2607 6.87701 13.047 6.97112C12.8867 7.03835 12.7131 7.07868 12.5128 7.09213L12.4193 7.58959H11.9785L12.072 7.09213C11.9785 7.07868 11.8984 7.07868 11.8049 7.05179C11.6446 7.0249 11.4977 6.98457 11.3775 6.91734C11.2439 6.86356 11.1371 6.80978 11.0436 6.74256L11.3374 6.19132C11.4309 6.25854 11.5377 6.32577 11.6446 6.3661C11.7514 6.40644 11.8717 6.44677 11.9919 6.47366C12.0586 6.48711 12.1121 6.50055 12.1789 6.50055L12.3258 5.74763C12.2456 5.72074 12.1521 5.69385 12.072 5.66696C11.9651 5.62663 11.8583 5.57285 11.7648 5.51907C11.6713 5.45184 11.6045 5.38462 11.5377 5.27706C11.471 5.1695 11.4576 5.06194 11.4576 4.91404C11.4576 4.69892 11.511 4.51069 11.6312 4.34935C11.7514 4.18801 11.9117 4.06701 12.1254 3.9729C12.2857 3.90567 12.486 3.86534 12.6864 3.85189L12.7799 3.36787H13.2207L13.1272 3.86534C13.2474 3.87878 13.3542 3.89223 13.4611 3.91912C13.6481 3.95945 13.8083 4.02668 13.9419 4.12079L13.6748 4.67203C13.5546 4.59136 13.421 4.53758 13.2741 4.4838C13.1806 4.45691 13.1004 4.44347 13.0069 4.43002L12.8467 5.22328C12.9402 5.26361 13.0203 5.2905 13.1004 5.31739Z" fill="#8198A5"/>
</g>
</g>
</g>
<defs>
<clipPath id="clip0_4_9039">
<rect width="16.6154" height="17.1692" fill="white" transform="translate(0.692322 0.692322)"/>
</clipPath>
</defs>
</svg>
