<svg width="32" height="27" viewBox="0 0 32 27" fill="none" xmlns="http://www.w3.org/2000/svg">
<g id="Frame" clip-path="url(#clip0_4_11216)">
<g id="Group">
<path id="Vector" d="M0 9.74202C0.0688711 9.59176 0.12522 9.43523 0.212874 9.29749C0.538446 8.77157 1.04559 8.64635 1.847 8.82792C3.06789 9.11592 4.05713 9.8109 5.00254 10.581C5.67873 11.132 6.36744 11.6704 7.18137 12.0148C8.42731 12.5407 9.67325 12.5156 10.8566 11.8958C11.8458 11.3761 12.785 10.7563 13.7366 10.1678C14.6194 9.6168 15.5148 9.09714 16.5291 8.8154C18.0818 8.38339 19.5531 8.65887 20.9681 9.37262C21.9887 9.88603 22.8715 10.5935 23.7543 11.3073C24.6809 12.0586 25.6952 12.5532 26.9411 12.3028C27.7676 12.1337 28.5126 11.7643 29.2264 11.3323C29.4956 11.1695 29.746 10.988 30.009 10.8189C30.585 10.4495 31.3489 10.581 31.7433 11.1132C32.1565 11.6704 32.0814 12.4656 31.5179 12.8725C30.3158 13.7365 29.0448 14.4753 27.5923 14.8573C25.8267 15.3206 24.2614 14.876 22.8401 13.8117C22.214 13.3484 21.613 12.8412 20.9869 12.3842C20.2293 11.8332 19.3966 11.4513 18.4449 11.3574C17.3618 11.2572 16.3851 11.589 15.4772 12.1275C14.488 12.716 13.53 13.3671 12.5471 13.9619C11.4764 14.6068 10.3432 15.0764 9.06594 15.1077C7.65095 15.139 6.38623 14.6569 5.22794 13.8993C4.43905 13.3797 3.70025 12.7849 2.94893 12.2151C2.36666 11.7769 1.7343 11.4638 1.00176 11.3574C0.432009 11.276 0.18783 10.844 0.012522 10.3619C0 10.1615 0 9.9549 0 9.74202Z" fill="#8198A5"/>
<path id="Vector_2" d="M18.5576 0C19.0835 0.137742 19.6283 0.237918 20.1417 0.419487C21.3688 0.845236 22.3956 1.60282 23.3911 2.41675C24.011 2.92389 24.6433 3.42477 25.4322 3.64391C26.434 3.91939 27.3731 3.68773 28.2684 3.23694C28.8883 2.92389 29.4706 2.54197 30.0716 2.18509C30.5099 1.92839 30.9482 1.92839 31.3739 2.18509C31.7996 2.44179 32.0125 2.83624 31.9937 3.33086C31.9812 3.71904 31.8184 4.05087 31.5116 4.27001C30.3095 5.1215 29.0511 5.8603 27.611 6.24222C25.8392 6.71806 24.2614 6.27353 22.8276 5.2029C22.1452 4.69575 21.4878 4.15105 20.7865 3.66269C18.9959 2.41675 17.1677 2.48562 15.3457 3.59382C14.2626 4.25122 13.2107 4.95872 12.115 5.59734C11.0695 6.20466 9.93621 6.56153 8.69654 6.50519C7.37546 6.44884 6.20466 5.96674 5.12776 5.24672C4.3827 4.7521 3.69399 4.18235 2.97398 3.65017C2.42301 3.23694 1.82821 2.91763 1.12698 2.78615C0.44453 2.66093 0.0939139 2.14126 0.125219 1.38994C0.150263 0.726277 0.557228 0.144003 1.12698 0.169047C1.68421 0.194091 2.25396 0.356877 2.77989 0.563491C3.80043 0.957934 4.61436 1.69047 5.4596 2.3604C6.36744 3.08042 7.3379 3.66269 8.53375 3.76286C9.39777 3.838 10.2242 3.66895 10.9693 3.24946C11.9397 2.70475 12.8789 2.10996 13.818 1.52142C14.945 0.813931 16.097 0.194091 17.4494 0.037566C17.4682 0.037566 17.4807 0.012522 17.4995 0C17.8501 0 18.207 0 18.5576 0Z" fill="#8198A5"/>
<path id="Vector_3" d="M16.6918 22.2641C16.6918 22.0574 16.6918 21.9447 16.6918 21.8383C16.6918 19.9037 16.6918 17.969 16.6918 16.0281C16.6918 15.5773 16.8609 15.2142 17.2741 15.0013C17.656 14.8072 18.063 14.8009 18.3823 15.0889C18.5764 15.2643 18.6954 15.5335 18.8018 15.7839C18.8644 15.9279 18.8394 16.1095 18.8394 16.2785C18.8394 18.113 18.8394 19.9412 18.8394 21.7757C18.8394 21.8884 18.8394 22.0011 18.8394 22.1138C18.8581 22.1263 18.8832 22.1326 18.902 22.1451C19.1211 21.8821 19.3402 21.6129 19.5656 21.3562C19.8161 21.0745 20.054 20.7865 20.3295 20.5298C20.8053 20.079 21.4502 20.0978 21.926 20.5485C22.4019 20.9993 22.477 21.6567 22.0513 22.1451C20.9931 23.3597 19.9162 24.5556 18.8394 25.7577C18.7517 25.8579 18.6453 25.9455 18.5451 26.0332C18.0254 26.4715 17.3931 26.4777 16.911 25.9956C16.2348 25.3194 15.5962 24.6119 14.9513 23.9044C14.4566 23.3535 13.9933 22.7837 13.5112 22.2202C13.1168 21.7632 13.0792 21.2373 13.3985 20.7614C13.7179 20.2856 14.2375 20.0978 14.7572 20.2856C14.8949 20.3357 15.0264 20.4421 15.1266 20.5485C15.64 21.0933 16.1283 21.638 16.6918 22.2641Z" fill="#8198A5"/>
</g>
</g>
<defs>
<clipPath id="clip0_4_11216">
<rect width="32" height="26.3588" fill="white"/>
</clipPath>
</defs>
</svg>
