<svg width="29" height="21" viewBox="0 0 29 21" fill="none" xmlns="http://www.w3.org/2000/svg">
<g id="Frame" clip-path="url(#clip0_4_11222)">
<g id="Group">
<path id="Vector" d="M25.3524 5.69092C25.3524 10.1857 25.3524 14.596 25.3524 19.0425C23.7273 19.0425 22.1141 19.0425 20.4168 19.0425C20.4168 18.8491 20.4168 18.6558 20.4168 18.4625C20.4168 15.6714 20.4288 12.8681 20.4047 10.077C20.4047 9.67826 20.5131 9.41244 20.8381 9.17078C22.1864 8.13165 23.5226 7.06836 24.8709 6.01716C25.0033 5.90841 25.1598 5.82383 25.3524 5.69092Z" fill="white"/>
<path id="Vector_2" d="M0 21C0 13.9799 0 7.00806 0 0C0.361146 0 0.698215 0 1.10751 0C1.10751 6.6214 1.10751 13.2307 1.10751 19.9005C10.4491 19.9005 19.6945 19.9005 29 19.9005C29 20.2871 29 20.6133 29 20.9879C19.3333 21 9.67871 21 0 21Z" fill="white"/>
<path id="Vector_3" d="M13.0615 19.0668C11.3761 19.0668 9.78706 19.0668 8.14987 19.0668C8.13783 18.8493 8.11375 18.656 8.11375 18.4627C8.11375 16.5294 8.12579 14.5962 8.10172 12.675C8.08968 12.2279 8.24617 11.9863 8.61936 11.7688C9.36573 11.3338 10.088 10.8746 10.8103 10.3913C11.1353 10.1738 11.4002 10.1738 11.7493 10.3188C13.0494 10.8505 13.0615 10.8384 13.0615 12.2521C13.0615 14.282 13.0615 16.3119 13.0615 18.3418C13.0615 18.5593 13.0615 18.7768 13.0615 19.0668Z" fill="white"/>
<path id="Vector_4" d="M25.4487 2.94819C25.1598 2.57362 24.8829 2.21113 24.5218 1.72782C25.9303 1.55866 27.2424 1.40158 28.6509 1.23242C28.1453 2.57362 27.6878 3.80607 27.1943 5.13518C26.8331 4.7002 26.5322 4.33772 26.1951 3.91482C26.0145 4.04773 25.846 4.16856 25.6775 4.30147C22.9328 6.50055 20.1881 8.68754 17.4554 10.8987C17.0942 11.1887 16.8053 11.237 16.384 11.0558C14.9033 10.4516 13.3865 9.89583 11.9058 9.30377C11.4965 9.13461 11.1835 9.15877 10.7983 9.40043C8.04152 11.1283 5.28478 12.844 2.51599 14.5598C2.37153 14.6565 2.21504 14.729 2.0465 14.8135C1.81778 13.714 1.85389 13.6294 2.68453 13.1099C5.34497 11.4545 8.00541 9.81125 10.6538 8.14381C11.0631 7.89007 11.3761 7.87799 11.8095 8.04715C13.3142 8.65129 14.8311 9.23127 16.3599 9.79917C16.5646 9.87166 16.9016 9.8475 17.0581 9.72667C19.8269 7.53967 22.5837 5.31643 25.3404 3.10526C25.3645 3.06902 25.3765 3.03277 25.4487 2.94819Z" fill="white"/>
<path id="Vector_5" d="M14.3014 19.0545C14.3014 16.4809 14.3014 13.9556 14.3014 11.3215C15.0116 11.5994 15.7098 11.829 16.3719 12.119C16.7331 12.2761 16.9859 12.2398 17.2868 11.9861C17.8647 11.4907 18.4786 11.0436 19.1528 10.512C19.1528 13.3998 19.1528 16.203 19.1528 19.0545C17.5637 19.0545 15.9626 19.0545 14.3014 19.0545Z" fill="white"/>
<path id="Vector_6" d="M6.87381 12.8562C6.87381 14.9949 6.87381 17.0006 6.87381 19.0547C5.23662 19.0547 3.63554 19.0547 1.9502 19.0547C1.9502 18.0518 1.9502 17.0731 1.96223 16.0944C1.96223 15.9977 2.05854 15.8648 2.14281 15.8165C3.68369 14.8257 5.23662 13.8712 6.87381 12.8562Z" fill="white"/>
</g>
</g>
<defs>
<clipPath id="clip0_4_11222">
<rect width="29" height="21" fill="white"/>
</clipPath>
</defs>
</svg>
