<svg width="39" height="39" viewBox="0 0 39 39" fill="none" xmlns="http://www.w3.org/2000/svg">
<g id="reliance-group 1" clip-path="url(#clip0_8_16844)">
<path id="Vector" d="M0 7C0 3.13401 3.13401 0 7 0H32C35.866 0 39 3.13401 39 7V32C39 35.866 35.866 39 32 39H7C3.13401 39 0 35.866 0 32V7Z" fill="#08439D"/>
<path id="Vector_2" d="M19.7167 8.66663C18.8067 8.66663 17.9833 9.18663 17.6367 9.98829L9.29498 28.1666H11.6783L19.11 11.9816C19.1632 11.8717 19.2463 11.779 19.3498 11.7142C19.4532 11.6493 19.5729 11.615 19.695 11.615C19.8171 11.615 19.9367 11.6493 20.0402 11.7142C20.1437 11.779 20.2268 11.8717 20.28 11.9816L27.7333 28.1666H30.1166L21.775 9.98829C21.5934 9.59483 21.3032 9.26142 20.9386 9.02728C20.5739 8.79314 20.15 8.66801 19.7167 8.66663Z" fill="white"/>
<path id="Vector_3" d="M19.6733 16.25L14.2133 28.1667H25.155L19.6733 16.25Z" fill="#E61E26"/>
</g>
<defs>
<clipPath id="clip0_8_16844">
<rect width="39" height="39" fill="white"/>
</clipPath>
</defs>
</svg>
